<?xml version="1.0" encoding="UTF-8"?>
<svg xmlns="http://www.w3.org/2000/svg" xmlns:xlink="http://www.w3.org/1999/xlink" width="200pt" height="200pt" viewBox="0 0 200 200" version="1.1">
<g id="surface1">
<path style=" stroke:none;fill-rule:nonzero;fill:rgb(0%,0%,0%);fill-opacity:1;" d="M 183.332031 190 L 183.332031 169.183594 C 187.726562 166.59375 190.300781 161.757812 190 156.667969 C 190 149.304688 185.523438 143.332031 180 143.332031 C 174.476562 143.332031 170 149.304688 170 156.667969 C 169.699219 161.757812 172.273438 166.59375 176.667969 169.183594 L 176.667969 190 L 153.332031 190 L 153.332031 88.726562 L 133.332031 78.726562 L 133.332031 96.667969 L 143.332031 96.667969 L 143.332031 103.332031 L 133.332031 103.332031 L 133.332031 116.667969 L 143.332031 116.667969 L 143.332031 123.332031 L 133.332031 123.332031 L 133.332031 136.667969 L 143.332031 136.667969 L 143.332031 143.332031 L 133.332031 143.332031 L 133.332031 156.667969 L 143.332031 156.667969 L 143.332031 163.332031 L 133.332031 163.332031 L 133.332031 176.667969 L 143.332031 176.667969 L 143.332031 183.332031 L 133.332031 183.332031 L 133.332031 190 L 126.667969 190 L 126.667969 55.847656 L 86.667969 44.421875 L 86.667969 56.667969 L 110 56.667969 L 110 63.332031 L 86.667969 63.332031 L 86.667969 76.667969 L 110 76.667969 L 110 83.332031 L 86.667969 83.332031 L 86.667969 96.667969 L 110 96.667969 L 110 103.332031 L 86.667969 103.332031 L 86.667969 116.667969 L 110 116.667969 L 110 123.332031 L 86.667969 123.332031 L 86.667969 136.667969 L 110 136.667969 L 110 143.332031 L 86.667969 143.332031 L 86.667969 156.667969 L 110 156.667969 L 110 163.332031 L 86.667969 163.332031 L 86.667969 176.667969 L 110 176.667969 L 110 183.332031 L 86.667969 183.332031 L 86.667969 190 L 80 190 L 80 3.332031 L 20 3.332031 L 20 16.667969 L 50 16.667969 L 50 23.332031 L 20 23.332031 L 20 36.667969 L 50 36.667969 L 50 43.332031 L 20 43.332031 L 20 56.667969 L 50 56.667969 L 50 63.332031 L 20 63.332031 L 20 76.667969 L 50 76.667969 L 50 83.332031 L 20 83.332031 L 20 96.667969 L 50 96.667969 L 50 103.332031 L 20 103.332031 L 20 116.667969 L 50 116.667969 L 50 123.332031 L 20 123.332031 L 20 136.667969 L 50 136.667969 L 50 143.332031 L 20 143.332031 L 20 156.667969 L 50 156.667969 L 50 163.332031 L 20 163.332031 L 20 176.667969 L 50 176.667969 L 50 183.332031 L 20 183.332031 L 20 190 L 0 190 L 0 196.667969 L 200 196.667969 L 200 190 Z M 183.332031 190 "/>
</g>
</svg>
