<?xml version="1.0" encoding="UTF-8"?>
<svg xmlns="http://www.w3.org/2000/svg" xmlns:xlink="http://www.w3.org/1999/xlink" width="30pt" height="30pt" viewBox="0 0 30 30" version="1.1">
<g id="surface1">
<path style=" stroke:none;fill-rule:nonzero;fill:rgb(0%,0%,0%);fill-opacity:1;" d="M 27.5 28.5 L 27.5 25.378906 C 28.160156 24.988281 28.546875 24.265625 28.5 23.5 C 28.5 22.394531 27.828125 21.5 27 21.5 C 26.171875 21.5 25.5 22.394531 25.5 23.5 C 25.453125 24.265625 25.839844 24.988281 26.5 25.378906 L 26.5 28.5 L 23 28.5 L 23 13.308594 L 20 11.808594 L 20 14.5 L 21.5 14.5 L 21.5 15.5 L 20 15.5 L 20 17.5 L 21.5 17.5 L 21.5 18.5 L 20 18.5 L 20 20.5 L 21.5 20.5 L 21.5 21.5 L 20 21.5 L 20 23.5 L 21.5 23.5 L 21.5 24.5 L 20 24.5 L 20 26.5 L 21.5 26.5 L 21.5 27.5 L 20 27.5 L 20 28.5 L 19 28.5 L 19 8.378906 L 13 6.664062 L 13 8.5 L 16.5 8.5 L 16.5 9.5 L 13 9.5 L 13 11.5 L 16.5 11.5 L 16.5 12.5 L 13 12.5 L 13 14.5 L 16.5 14.5 L 16.5 15.5 L 13 15.5 L 13 17.5 L 16.5 17.5 L 16.5 18.5 L 13 18.5 L 13 20.5 L 16.5 20.5 L 16.5 21.5 L 13 21.5 L 13 23.5 L 16.5 23.5 L 16.5 24.5 L 13 24.5 L 13 26.5 L 16.5 26.5 L 16.5 27.5 L 13 27.5 L 13 28.5 L 12 28.5 L 12 0.5 L 3 0.5 L 3 2.5 L 7.5 2.5 L 7.5 3.5 L 3 3.5 L 3 5.5 L 7.5 5.5 L 7.5 6.5 L 3 6.5 L 3 8.5 L 7.5 8.5 L 7.5 9.5 L 3 9.5 L 3 11.5 L 7.5 11.5 L 7.5 12.5 L 3 12.5 L 3 14.5 L 7.5 14.5 L 7.5 15.5 L 3 15.5 L 3 17.5 L 7.5 17.5 L 7.5 18.5 L 3 18.5 L 3 20.5 L 7.5 20.5 L 7.5 21.5 L 3 21.5 L 3 23.5 L 7.5 23.5 L 7.5 24.5 L 3 24.5 L 3 26.5 L 7.5 26.5 L 7.5 27.5 L 3 27.5 L 3 28.5 L 0 28.5 L 0 29.5 L 30 29.5 L 30 28.5 Z M 27.5 28.5 "/>
</g>
</svg>
